<svg version="1" xmlns="http://www.w3.org/2000/svg" width="682.667" height="682.667" viewBox="0 0 512.000000 512.000000"><path d="M238.5 20.7c-4.8 1.7-10.2 2.8-17 3.3-16.6 1.2-28.9 5.1-40.8 13-20.9 13.6-34 35.4-36.4 60.2l-.6 6.8H136v32h16V167.7l-7.2.8c-14.9 1.4-23.8 10.2-23.8 23.5s8.9 22.1 23.8 23.5l7.2.8V232h208v-15.7l7.2-.8c15-1.4 23.8-10.1 23.8-23.5s-8.8-22.1-23.8-23.5l-7.2-.8V136h16v-32H368.3l-.6-6.8c-2.4-24.8-15.5-46.6-36.4-60.2-11.9-7.9-24.2-11.8-40.8-13-6.8-.5-12.2-1.6-17-3.3-8.8-3.3-11.9-3.4-15-.2l-2.5 2.4-2.5-2.4c-3.1-3.2-6.2-3.1-15 .2zM223.3 264.3c-3.5 1.7-6.3 3.4-6.3 3.7 0 1.7 8 9.6 12.4 12.5 13.8 8.7 33.8 9.8 48.5 2.7 5.2-2.5 17.1-12.9 17.1-14.9 0-.5-3.1-2.4-6.9-4.3l-7-3.3-4 3.6c-6.4 5.7-10.3 7.1-21.1 7.1s-14.6-1.2-20.8-6.8c-2.2-2-4.3-3.6-4.8-3.5-.5 0-3.7 1.4-7.1 3.2zM170 299.4c-15.3 4.7-25 10.7-35.7 22-11.7 12.2-18.7 26.5-21.3 43.2-.7 4.4-1 23.5-.8 52.9l.3 46 2.6 5.6c3.3 7.1 8.7 12.5 15.8 15.8l5.6 2.6 39.8.3 39.7.3V432h4.3c3.9 0 4.8-.5 10.7-6.6 3.6-3.6 7.7-7.2 9.2-8 3.3-1.7 23.5-2 27.1-.3 3.2 1.4 4.7 4.9 4.7 10.4v4.5h12.5c13.4 0 16.6.8 18.4 4.7 1.5 3.3 1.5 43.3 0 46.7-.6 1.3-2.1 2.9-3.3 3.5-1.5.7 8.9 1 36.9.8l39-.2 5.6-2.6c7.1-3.3 12.5-8.7 15.8-15.8l2.6-5.6v-50c0-45.5-.2-50.6-1.8-56.5-8.8-30.8-31.1-52.4-60.8-59l-5.7-1.3-5.8 4.5c-10.9 8.3-18.1 11.8-34.4 16.4-8 2.2-10.1 2.4-35 2.4-24.8 0-27-.2-35-2.4-15-4.2-25.4-9.3-36.1-17.7-4.4-3.4-5.2-3.5-14.9-.5zm54.7 31.8c-.3.7-.5.2-.5-1.2s.2-1.9.5-1.3c.2.7.2 1.9 0 2.5zm63 0c-.3.7-.5.2-.5-1.2s.2-1.9.5-1.3c.2.7.2 1.9 0 2.5zm-31.7 4.3c14 0 26.7-.4 28.3-.8 3.4-.9 3.5.1.3 6.9-9.1 19.6-35.7 24.2-51.1 8.9-3.5-3.6-8.5-12.4-8.5-15.3 0-.9.8-1 2.8-.5 1.5.4 14.2.8 28.2.8z"/></svg>